Coordinates
version=1
nRows=10
nColumns=40
inDegrees=yes

Units are S.I. units (second, meters, Newtons, ...)
Angles are in degrees.

endheader
time	pelvis_tilt	pelvis_list	pelvis_rotation	pelvis_tx	pelvis_ty	pelvis_tz	hip_flexion_r	hip_adduction_r	hip_rotation_r	knee_angle_r	knee_angle_r_beta	ankle_angle_r	subtalar_angle_r	mtp_angle_r	hip_flexion_l	hip_adduction_l	hip_rotation_l	knee_angle_l	knee_angle_l_beta	ankle_angle_l	subtalar_angle_l	mtp_angle_l	lumbar_extension	lumbar_bending	lumbar_rotation	arm_flex_r	arm_add_r	arm_rot_r	elbow_flex_r	pro_sup_r	wrist_flex_r	wrist_dev_r	arm_flex_l	arm_add_l	arm_rot_l	elbow_flex_l	pro_sup_l	wrist_flex_l	wrist_dev_l
      0.00000000	     -4.70891522	      0.14067389	     -6.06182511	     -0.98149110	      0.87065311	      1.51542286	     -4.22137544	     -4.72404823	    -22.25355090	    -22.06258054	     -0.38506467	     11.34849999	     -2.38372847	     -1.46734832	     32.97297773	      4.51623394	     17.63618033	    -24.74809269	     -0.43193570	      4.26986643	      9.51315544	     -0.48163325	     -3.92044805	      0.51346591	      4.41297365	     11.71211979	    -13.69099921	    -20.20048749	     31.50029386	     89.95437384	      0.00000000	      0.00000000	    -10.16496171	     10.09595456	     18.51658102	     18.81382673	     89.95437384	      0.00000000	      0.00000000
      0.01000000	     -4.61905001	      0.13218271	     -6.01557216	     -0.97210018	      0.86999175	      1.51436537	     -4.72263812	     -4.96662217	    -22.17626364	    -22.51777638	     -0.39300934	     11.09972309	     -2.40618569	     -1.40915115	     32.80991332	      4.36661365	     17.49183755	    -25.68512979	     -0.44829008	      3.75073699	      9.91665323	     -0.33742373	     -3.83891639	      0.44473919	      4.65187020	     11.37000430	    -13.59492194	    -20.13114303	     31.48468241	     89.95437384	      0.00000000	      0.00000000	    -10.06477576	      9.97261430	     18.39697203	     18.87276604	     89.95437384	      0.00000000	      0.00000000
      0.02000000	     -4.50189897	      0.10266667	     -5.95594135	     -0.96287178	      0.86960819	      1.51344230	     -5.16780011	     -5.16389664	    -21.91854560	    -23.10668578	     -0.40328775	     10.55729372	     -2.46499928	     -1.29752788	     32.69497296	      4.31668743	     17.54143258	    -26.53886264	     -0.46319053	      3.22115375	     10.70388782	     -0.13098897	     -3.83194923	      0.36747097	      4.80222417	     10.98995229	    -13.41106820	    -20.03838693	     31.65241114	     89.95437384	      0.00000000	      0.00000000	     -9.88816546	      9.87461731	     18.27192131	     18.84044059	     89.95437384	      0.00000000	      0.00000000
      0.03000000	     -4.64128412	      0.07635853	     -5.84073010	     -0.95347731	      0.86901639	      1.51223354	     -5.31909513	     -5.30577318	    -21.44163064	    -23.68757145	     -0.41342611	     10.14989194	     -2.41249045	     -1.25428178	     32.65738780	      4.18102435	     17.16617476	    -26.92302610	     -0.46989545	      2.98499570	     10.42187353	     -0.10371339	     -3.49863410	      0.31530997	      4.83528736	     10.52461217	    -13.19587769	    -19.88671283	     31.80714628	     89.95437384	      0.00000000	      0.00000000	     -9.96624081	      9.72815046	     18.17807686	     19.21916301	     89.95437384	      0.00000000	      0.00000000
      0.04000000	     -4.47876515	      0.22359560	     -5.75330148	     -0.94445397	      0.86906353	      1.51071354	     -5.49195564	     -5.80044698	    -21.16269771	    -24.78410303	     -0.43256420	      9.13644039	     -2.91657852	     -1.03090114	     32.56610775	      3.91891010	     16.87940127	    -27.93032352	     -0.48747611	      2.13629634	     11.07196318	      0.08648125	     -3.58504255	      0.06306053	      4.99130936	     10.11275052	    -13.05245234	    -19.71212442	     31.96640170	     89.95437384	      0.00000000	      0.00000000	     -9.54613394	      9.61302179	     18.00095108	     19.11298142	     89.95437384	      0.00000000	      0.00000000
      0.05000000	     -4.66886149	      0.56988692	     -5.57415356	     -0.93523582	      0.86903434	      1.50860158	     -5.19065691	     -6.38916699	    -20.50429494	    -25.92293036	     -0.45244049	      7.71699602	     -5.00667716	     -0.08821757	     32.48762748	      2.97870735	     15.54803385	    -28.12015865	     -0.49078935	      1.50832394	     13.92951710	      0.58275779	     -3.20257244	     -0.32054460	      5.05384047	      9.50643057	    -12.83564595	    -19.72111932	     32.20535058	     89.95437384	      0.00000000	      0.00000000	     -9.16899221	      9.46968040	     17.70920170	     18.95000247	     89.95437384	      0.00000000	      0.00000000
      0.06000000	     -4.67895868	      0.76009375	     -5.40634924	     -0.92565952	      0.86928284	      1.50673775	     -5.00945026	     -6.92968618	    -20.15490137	    -27.27832530	     -0.47609659	      6.43748370	     -5.81432990	      0.54781081	     32.34021555	      2.60775841	     15.35642950	    -28.90368479	     -0.50446447	      1.53787628	     14.10766698	      0.69076244	     -3.00954432	     -0.57066799	      5.07548878	      8.86865481	    -12.63146704	    -19.55545402	     32.46078725	     89.95437384	      0.00000000	      0.00000000	     -8.86694413	      9.32655030	     17.60344667	     18.99121754	     89.95437384	      0.00000000	      0.00000000
      0.07000000	     -4.53986205	      0.81610329	     -5.16755363	     -0.91588259	      0.86991335	      1.50486314	     -4.92383434	     -7.36393709	    -19.94327702	    -28.78175008	     -0.50233630	      5.01225823	     -6.24196670	      0.90376077	     31.99379886	      2.37376129	     15.28136828	    -29.69744781	     -0.51831824	      1.79431250	     14.00797360	      0.71087869	     -2.98324769	     -0.69856569	      4.98611620	      8.30442504	    -12.40703101	    -19.38222632	     32.57549621	     89.95437384	      0.00000000	      0.00000000	     -8.60318450	      9.17681955	     17.48734556	     19.15794707	     89.95437384	      0.00000000	      0.00000000
      0.08000000	     -4.52916772	      1.06413922	     -4.91425040	     -0.90631169	      0.87056307	      1.50260150	     -4.43109946	     -7.97552847	    -19.38224627	    -30.58142128	     -0.53374649	      3.17818999	     -7.56875771	      1.66556210	     31.63279314	      1.72166791	     14.79189626	    -30.10077804	     -0.52535768	      2.10336162	     14.23280940	      0.82466648	     -2.81780942	     -0.98517299	      4.85308338	      7.65044661	    -12.18164561	    -19.20245768	     32.85123059	     89.95437384	      0.00000000	      0.00000000	     -8.32568172	      9.00761303	     17.22811231	     19.36417376	     89.95437384	      0.00000000	      0.00000000
      0.09000000	     -4.55161487	      0.98645740	     -4.60034802	     -0.89670138	      0.87137140	      1.50070806	     -3.78235949	     -8.03388857	    -18.50447300	    -32.60432417	     -0.56905281	      2.17826299	     -8.86518272	     10.89477414	     31.25134394	      1.38183513	     14.10626434	    -30.52320219	     -0.53273038	      2.82346384	     14.40082544	      3.39393889	     -2.62081034	     -0.96429054	      4.65096748	      7.02177171	    -11.93561162	    -18.97699878	     32.93865204	     89.95437384	      0.00000000	      0.00000000	     -7.98698482	      8.85580849	     17.28290113	     19.52860384	     89.95437384	      0.00000000	      0.00000000
